<svg width="1280" height="640" viewBox="0 0 1280 640" fill="none" xmlns="http://www.w3.org/2000/svg" role="img" aria-labelledby="title desc">
  <title id="title">Sora2App 界面预览</title>
  <desc id="desc">接近真实界面的 Sora 2 本地工作台预览，展示提示词输入、标准 API 和 Batch API、任务状态、运行日志和自动下载 MP4。</desc>
  <defs>
    <linearGradient id="pageBg" x1="0" y1="0" x2="1280" y2="640" gradientUnits="userSpaceOnUse">
      <stop offset="0" stop-color="#F8FAFC"/>
      <stop offset="0.58" stop-color="#EEF3F7"/>
      <stop offset="1" stop-color="#E2E8F0"/>
    </linearGradient>
    <linearGradient id="monitorBg" x1="806" y1="122" x2="806" y2="580" gradientUnits="userSpaceOnUse">
      <stop offset="0" stop-color="#ECF8F5"/>
      <stop offset="1" stop-color="#F8FAFC"/>
    </linearGradient>
    <filter id="softShadow" x="18" y="6" width="1244" height="622" filterUnits="userSpaceOnUse" color-interpolation-filters="sRGB">
      <feDropShadow dx="0" dy="22" stdDeviation="18" flood-color="#0F172A" flood-opacity="0.14"/>
    </filter>
  </defs>

  <rect width="1280" height="640" fill="url(#pageBg)"/>
  <rect x="38" y="28" width="1204" height="584" rx="12" fill="#FFFFFF" stroke="#CBD5E1" filter="url(#softShadow)"/>

  <rect x="38" y="28" width="1204" height="78" rx="12" fill="#FFFFFF"/>
  <path d="M38 94H1242" stroke="#D8E1E8"/>
  <text x="74" y="54" fill="#C2410C" font-family="Inter, PingFang SC, Microsoft YaHei, Arial, sans-serif" font-size="12" font-weight="900">SORA 视频生成器</text>
  <text x="74" y="83" fill="#111827" font-family="Inter, PingFang SC, Microsoft YaHei, Arial, sans-serif" font-size="28" font-weight="800">Sora 2 工作台</text>

  <rect x="916" y="48" width="118" height="36" rx="18" fill="#FFFFFF" stroke="#D8E1E8"/>
  <text x="956" y="71" fill="#111827" font-family="Inter, PingFang SC, Microsoft YaHei, Arial, sans-serif" font-size="14" font-weight="800">中文</text>
  <path d="M1008 64L1014 70L1020 64" stroke="#5B6875" stroke-width="2" stroke-linecap="round" stroke-linejoin="round"/>
  <rect x="1048" y="48" width="176" height="36" rx="18" fill="#DFF5EF" stroke="#B7E2D8"/>
  <circle cx="1072" cy="66" r="5" fill="#0F766E"/>
  <text x="1086" y="71" fill="#0B5F59" font-family="Inter, PingFang SC, Microsoft YaHei, Arial, sans-serif" font-size="13" font-weight="800">标准 API 就绪</text>

  <rect x="38" y="106" width="732" height="506" fill="#FFFFFF"/>
  <rect x="770" y="106" width="472" height="506" fill="url(#monitorBg)"/>
  <path d="M770 106V612" stroke="#D8E1E8"/>

  <text x="76" y="139" fill="#C2410C" font-family="Inter, PingFang SC, Microsoft YaHei, Arial, sans-serif" font-size="12" font-weight="900">生成</text>
  <text x="76" y="165" fill="#111827" font-family="Inter, PingFang SC, Microsoft YaHei, Arial, sans-serif" font-size="22" font-weight="800">生成参数</text>
  <rect x="574" y="135" width="154" height="30" rx="15" fill="#ECF8F5" stroke="#B7E2D8"/>
  <text x="588" y="155" fill="#0B5F59" font-family="Inter, PingFang SC, Microsoft YaHei, Arial, sans-serif" font-size="12" font-weight="800">API key 仅用于本次请求</text>

  <rect x="76" y="188" width="652" height="56" rx="8" fill="#F3F6F9" stroke="#D8E1E8"/>
  <rect x="82" y="194" width="318" height="44" rx="7" fill="#0F766E"/>
  <text x="203" y="222" fill="#FFFFFF" font-family="Inter, PingFang SC, Microsoft YaHei, Arial, sans-serif" font-size="16" font-weight="900">标准 API</text>
  <text x="505" y="222" fill="#5B6875" font-family="Inter, PingFang SC, Microsoft YaHei, Arial, sans-serif" font-size="16" font-weight="900">Batch API</text>
  <rect x="590" y="204" width="70" height="24" rx="12" fill="#FFFFFF" stroke="#D8E1E8"/>
  <text x="607" y="221" fill="#0F766E" font-family="Inter, Arial, sans-serif" font-size="12" font-weight="900">-50%</text>

  <text x="76" y="272" fill="#5B6875" font-family="Inter, PingFang SC, Microsoft YaHei, Arial, sans-serif" font-size="13" font-weight="800">API key</text>
  <rect x="76" y="283" width="552" height="44" rx="7" fill="#F7F9FC" stroke="#CBD5E1"/>
  <text x="96" y="311" fill="#8A97A5" font-family="Inter, Arial, sans-serif" font-size="16" font-weight="700">sk-...</text>
  <rect x="640" y="283" width="88" height="44" rx="8" fill="#FFFFFF" stroke="#CBD5E1"/>
  <text x="670" y="311" fill="#111827" font-family="Inter, PingFang SC, Microsoft YaHei, Arial, sans-serif" font-size="14" font-weight="900">显示</text>

  <text x="76" y="358" fill="#5B6875" font-family="Inter, PingFang SC, Microsoft YaHei, Arial, sans-serif" font-size="13" font-weight="800">提示词</text>
  <rect x="76" y="369" width="652" height="112" rx="8" fill="#F7F9FC" stroke="#CBD5E1"/>
  <text x="100" y="398" fill="#8A97A5" font-family="Inter, PingFang SC, Microsoft YaHei, Arial, sans-serif" font-size="17" font-weight="700">描述画面、镜头、主体、动作、光线和风格...</text>
  <path d="M100 428H529" stroke="#D8E1E8" stroke-width="4" stroke-linecap="round"/>
  <path d="M100 455H420" stroke="#D8E1E8" stroke-width="4" stroke-linecap="round"/>
  <text x="669" y="467" fill="#8A97A5" font-family="Inter, PingFang SC, Microsoft YaHei, Arial, sans-serif" font-size="12" font-weight="800">0 字符</text>

  <text x="76" y="510" fill="#5B6875" font-family="Inter, PingFang SC, Microsoft YaHei, Arial, sans-serif" font-size="13" font-weight="800">模型</text>
  <rect x="76" y="522" width="202" height="44" rx="7" fill="#F7F9FC" stroke="#CBD5E1"/>
  <text x="96" y="550" fill="#111827" font-family="Inter, Arial, sans-serif" font-size="15" font-weight="700">sora-2-pro</text>
  <text x="300" y="510" fill="#5B6875" font-family="Inter, PingFang SC, Microsoft YaHei, Arial, sans-serif" font-size="13" font-weight="800">时长</text>
  <rect x="300" y="522" width="128" height="44" rx="7" fill="#F7F9FC" stroke="#CBD5E1"/>
  <text x="320" y="550" fill="#111827" font-family="Inter, PingFang SC, Microsoft YaHei, Arial, sans-serif" font-size="15" font-weight="700">4 秒</text>
  <text x="450" y="510" fill="#5B6875" font-family="Inter, PingFang SC, Microsoft YaHei, Arial, sans-serif" font-size="13" font-weight="800">分辨率</text>
  <rect x="450" y="522" width="278" height="44" rx="7" fill="#F7F9FC" stroke="#CBD5E1"/>
  <text x="470" y="550" fill="#111827" font-family="Inter, PingFang SC, Microsoft YaHei, Arial, sans-serif" font-size="15" font-weight="700">1792 x 1024 横屏</text>

  <rect x="76" y="582" width="460" height="20" rx="10" fill="#ECF8F5"/>
  <text x="96" y="597" fill="#0B5F59" font-family="Inter, PingFang SC, Microsoft YaHei, Arial, sans-serif" font-size="12" font-weight="900">提示词生成视频</text>
  <path d="M210 592H292" stroke="#0F766E" stroke-width="3" stroke-linecap="round"/>
  <path d="M284 585L294 592L284 599" stroke="#0F766E" stroke-width="3" stroke-linecap="round" stroke-linejoin="round"/>
  <text x="313" y="597" fill="#0B5F59" font-family="Inter, PingFang SC, Microsoft YaHei, Arial, sans-serif" font-size="12" font-weight="900">轮询任务状态</text>
  <path d="M426 592H508" stroke="#0F766E" stroke-width="3" stroke-linecap="round"/>
  <path d="M500 585L510 592L500 599" stroke="#0F766E" stroke-width="3" stroke-linecap="round" stroke-linejoin="round"/>
  <text x="530" y="597" fill="#0B5F59" font-family="Inter, PingFang SC, Microsoft YaHei, Arial, sans-serif" font-size="12" font-weight="900">保存 MP4</text>

  <text x="804" y="139" fill="#C2410C" font-family="Inter, PingFang SC, Microsoft YaHei, Arial, sans-serif" font-size="12" font-weight="900">状态</text>
  <text x="804" y="165" fill="#111827" font-family="Inter, PingFang SC, Microsoft YaHei, Arial, sans-serif" font-size="22" font-weight="800">任务状态</text>

  <rect x="804" y="188" width="386" height="80" rx="8" fill="#FFFFFF" stroke="#D8E1E8"/>
  <text x="824" y="222" fill="#111827" font-family="Inter, PingFang SC, Microsoft YaHei, Arial, sans-serif" font-size="17" font-weight="900">已完成</text>
  <text x="1130" y="222" fill="#111827" font-family="Inter, Arial, sans-serif" font-size="18" font-weight="900">100%</text>
  <rect x="824" y="239" width="346" height="12" rx="6" fill="#E7EFEE"/>
  <rect x="824" y="239" width="346" height="12" rx="6" fill="#0F766E"/>

  <rect x="804" y="284" width="386" height="116" rx="8" fill="#FFFFFF" stroke="#D8E1E8"/>
  <path d="M997 284V400" stroke="#D8E1E8"/>
  <path d="M804 342H1190" stroke="#D8E1E8"/>
  <text x="824" y="312" fill="#5B6875" font-family="Inter, PingFang SC, Microsoft YaHei, Arial, sans-serif" font-size="12" font-weight="800">方式</text>
  <text x="824" y="332" fill="#111827" font-family="Inter, PingFang SC, Microsoft YaHei, Arial, sans-serif" font-size="15" font-weight="900">标准 API</text>
  <text x="1017" y="312" fill="#5B6875" font-family="Inter, PingFang SC, Microsoft YaHei, Arial, sans-serif" font-size="12" font-weight="800">模型</text>
  <text x="1017" y="332" fill="#111827" font-family="Inter, Arial, sans-serif" font-size="15" font-weight="900">Sora 2 Pro</text>
  <text x="824" y="370" fill="#5B6875" font-family="Inter, PingFang SC, Microsoft YaHei, Arial, sans-serif" font-size="12" font-weight="800">预估价格</text>
  <text x="824" y="390" fill="#111827" font-family="Inter, Arial, sans-serif" font-size="15" font-weight="900">US$2.00</text>
  <text x="1017" y="370" fill="#5B6875" font-family="Inter, PingFang SC, Microsoft YaHei, Arial, sans-serif" font-size="12" font-weight="800">时长</text>
  <text x="1017" y="390" fill="#111827" font-family="Inter, PingFang SC, Microsoft YaHei, Arial, sans-serif" font-size="15" font-weight="900">4 秒</text>

  <rect x="804" y="416" width="386" height="54" rx="8" fill="#FFFFFF" stroke="#D8E1E8"/>
  <text x="824" y="440" fill="#5B6875" font-family="Inter, PingFang SC, Microsoft YaHei, Arial, sans-serif" font-size="12" font-weight="800">输出文件</text>
  <text x="824" y="459" fill="#111827" font-family="Inter, Arial, sans-serif" font-size="14" font-weight="900">~/Downloads/SoraVideos/sora-clip.mp4</text>

  <rect x="804" y="486" width="386" height="96" rx="8" fill="#0B1220"/>
  <text x="824" y="512" fill="#E8F3F1" font-family="SFMono-Regular, Consolas, monospace" font-size="13" font-weight="700">[04:38:50] 本地小程序已就绪。</text>
  <text x="824" y="540" fill="#9DECCF" font-family="SFMono-Regular, Consolas, monospace" font-size="13" font-weight="700">[04:39:12] 任务已提交。</text>
  <text x="824" y="568" fill="#9DECCF" font-family="SFMono-Regular, Consolas, monospace" font-size="13" font-weight="700">[04:41:08] MP4 已下载。</text>
</svg>
