<svg width="1280" height="640" viewBox="0 0 1280 640" fill="none" xmlns="http://www.w3.org/2000/svg" role="img" aria-labelledby="title desc">
  <title id="title">Sora2App social preview</title>
  <desc id="desc">Local Sora 2 video generation UI with Batch API and automatic MP4 downloads.</desc>
  <rect width="1280" height="640" fill="#0F172A"/>
  <rect x="64" y="64" width="1152" height="512" rx="28" fill="#F8FAFC"/>
  <rect x="104" y="112" width="420" height="32" rx="16" fill="#CBD5E1"/>
  <rect x="104" y="176" width="520" height="72" rx="10" fill="#0F172A"/>
  <rect x="104" y="284" width="420" height="44" rx="8" fill="#E2E8F0"/>
  <rect x="104" y="348" width="420" height="44" rx="8" fill="#E2E8F0"/>
  <rect x="104" y="412" width="200" height="52" rx="10" fill="#2563EB"/>
  <rect x="684" y="132" width="428" height="312" rx="20" fill="#111827"/>
  <rect x="720" y="168" width="356" height="16" rx="8" fill="#94A3B8"/>
  <rect x="720" y="212" width="296" height="16" rx="8" fill="#64748B"/>
  <rect x="720" y="292" width="356" height="18" rx="9" fill="#1E293B"/>
  <rect x="720" y="292" width="248" height="18" rx="9" fill="#22C55E"/>
  <rect x="720" y="352" width="160" height="48" rx="10" fill="#334155"/>
  <rect x="900" y="352" width="176" height="48" rx="10" fill="#334155"/>
  <text x="104" y="250" fill="#F8FAFC" font-family="Inter, Arial, sans-serif" font-size="68" font-weight="800">Sora2App</text>
  <text x="104" y="536" fill="#0F172A" font-family="Inter, Arial, sans-serif" font-size="44" font-weight="700">Local Sora 2 video generation UI</text>
  <text x="720" y="512" fill="#0F172A" font-family="Inter, Arial, sans-serif" font-size="28" font-weight="700">Batch API</text>
  <circle cx="692" cy="502" r="10" fill="#2563EB"/>
  <text x="880" y="512" fill="#0F172A" font-family="Inter, Arial, sans-serif" font-size="28" font-weight="700">Auto MP4 downloads</text>
  <circle cx="852" cy="502" r="10" fill="#22C55E"/>
  <text x="720" y="552" fill="#334155" font-family="Inter, Arial, sans-serif" font-size="24" font-weight="600">API key is not saved to disk, localStorage, or logs.</text>
</svg>
