<svg width="1280" height="640" viewBox="0 0 1280 640" fill="none" xmlns="http://www.w3.org/2000/svg" role="img" aria-labelledby="title desc">
  <title id="title">Sora2App social preview</title>
  <desc id="desc">Local Sora 2 video generation UI with Batch API and automatic MP4 downloads.</desc>
  <rect width="1280" height="640" fill="#0F172A"/>
  <rect x="64" y="64" width="1152" height="512" rx="28" fill="#F8FAFC"/>
  <rect x="104" y="112" width="420" height="32" rx="16" fill="#CBD5E1"/>
  <rect x="104" y="176" width="520" height="76" rx="10" fill="#0F172A"/>
  <rect x="104" y="288" width="432" height="44" rx="8" fill="#E2E8F0"/>
  <rect x="104" y="356" width="432" height="44" rx="8" fill="#E2E8F0"/>
  <rect x="104" y="432" width="216" height="54" rx="10" fill="#2563EB"/>
  <rect x="690" y="128" width="448" height="303" rx="20" fill="#111827"/>
  <rect x="728" y="170" width="350" height="16" rx="8" fill="#94A3B8"/>
  <rect x="728" y="222" width="290" height="16" rx="8" fill="#64748B"/>
  <rect x="728" y="298" width="350" height="20" rx="10" fill="#1E293B"/>
  <rect x="728" y="298" width="243" height="20" rx="10" fill="#22C55E"/>
  <rect x="728" y="358" width="156" height="46" rx="10" fill="#334155"/>
  <rect x="910" y="358" width="168" height="46" rx="10" fill="#334155"/>
  <text x="132" y="240" fill="#F8FAFC" font-family="Inter, Arial, sans-serif" font-size="54" font-weight="800">Sora2App</text>
  <text x="104" y="548" fill="#0F172A" font-family="Inter, Arial, sans-serif" font-size="46" font-weight="700">Local Sora 2 UI</text>
  <circle cx="686" cy="492" r="10" fill="#2563EB"/>
  <text x="710" y="502" fill="#0F172A" font-family="Inter, Arial, sans-serif" font-size="28" font-weight="700">Batch API</text>
  <circle cx="894" cy="492" r="10" fill="#22C55E"/>
  <text x="918" y="502" fill="#0F172A" font-family="Inter, Arial, sans-serif" font-size="28" font-weight="700">Auto MP4 downloads</text>
  <text x="710" y="548" fill="#334155" font-family="Inter, Arial, sans-serif" font-size="25" font-weight="600">API key not saved</text>
</svg>
